<svg xmlns="http://www.w3.org/2000/svg" width="640" height="640" viewBox="0 0 640 640">
  <rect width="640" height="640" fill="#f8fafc"/>
  <rect x="40" y="40" width="560" height="560" fill="#ffffff" stroke="#0f172a" stroke-width="8" rx="20"/>
  <rect x="90" y="90" width="150" height="150" fill="#0f172a"/>
  <rect x="400" y="90" width="150" height="150" fill="#0f172a"/>
  <rect x="90" y="400" width="150" height="150" fill="#0f172a"/>
  <g fill="#1e293b">
    <rect x="300" y="280" width="30" height="30"/>
    <rect x="350" y="280" width="30" height="30"/>
    <rect x="400" y="280" width="30" height="30"/>
    <rect x="450" y="280" width="30" height="30"/>
    <rect x="300" y="330" width="30" height="30"/>
    <rect x="400" y="330" width="30" height="30"/>
    <rect x="500" y="330" width="30" height="30"/>
    <rect x="250" y="380" width="30" height="30"/>
    <rect x="300" y="380" width="30" height="30"/>
    <rect x="350" y="380" width="30" height="30"/>
    <rect x="450" y="380" width="30" height="30"/>
    <rect x="500" y="380" width="30" height="30"/>
    <rect x="250" y="430" width="30" height="30"/>
    <rect x="350" y="430" width="30" height="30"/>
    <rect x="450" y="430" width="30" height="30"/>
    <rect x="300" y="480" width="30" height="30"/>
    <rect x="400" y="480" width="30" height="30"/>
    <rect x="500" y="480" width="30" height="30"/>
  </g>
  <text x="320" y="610" text-anchor="middle" font-size="28" fill="#0f172a" font-family="sans-serif">算法交流群二维码占位图</text>
</svg>
